<svg width="656" height="196" viewBox="0 0 656 196" fill="none" xmlns="http://www.w3.org/2000/svg">
<rect width="93.7143" height="50" fill="white"/>
<rect x="93.7142" width="93.7143" height="50" fill="#FBE54D"/>
<rect x="187.429" width="93.7143" height="50" fill="#74FADB"/>
<rect x="281.143" width="93.7143" height="50" fill="#68DC42"/>
<rect x="374.857" width="93.7143" height="50" fill="#E83CF2"/>
<rect x="468.572" width="93.7143" height="50" fill="#D52D25"/>
<rect x="562.286" width="93.7143" height="50" fill="#0732B3"/>
<path d="M62.9325 117.91H57.2422V78H80.0424V80.8646H82.8876V83.7098H85.7327V97.9551H82.8876V100.82H80.0424V103.665H62.9325V117.91ZM62.9325 97.9551H77.1973V95.1099H80.0424V86.555H77.1973V83.7098H62.9325V97.9551Z" fill="black"/>
<path d="M92.8651 117.91H87.1748V109.375H90.02V100.82H92.8651V92.2648H95.7103V83.7098H98.5749V78H107.13V83.7098H109.975V92.2648H112.82V100.82H115.665V109.375H118.53V117.91H112.82V109.375H92.8651V117.91ZM95.7103 103.665H109.975V100.82H107.13V92.2648H104.265V86.555H101.42V92.2648H98.5749V100.82H95.7103V103.665Z" fill="black"/>
<path d="M145.598 117.91H131.333V115.065H128.488V112.22H125.643V109.375H122.798V86.555H125.643V83.7098H128.488V80.8646H131.333V78H148.443V80.8646H151.288V83.7098H154.153V86.555H156.998V92.2648H151.288V89.4196H148.443V86.555H145.598V83.7098H134.198V86.555H131.333V89.4196H128.488V106.51H131.333V109.375H134.198V112.22H145.598V109.375H148.443V106.51H151.288V103.665H142.753V97.9551H156.998V117.91H151.288V112.22H148.443V115.065H145.598V117.91Z" fill="black"/>
<path d="M191.198 117.91H162.708V78H191.198V83.7098H168.398V93.6873H188.353V99.3971H168.398V112.22H191.198V117.91Z" fill="black"/>
<path d="M213.999 117.91H208.308V78H216.844V83.7098H219.709V89.4196H222.554V95.1099H225.399V100.82H228.263V106.51H231.109V78H236.799V117.91H228.263V112.22H225.399V106.51H222.554V100.82H219.709V95.1099H216.844V89.4196H213.999V117.91Z" fill="black"/>
<path d="M268.174 117.91H251.064V115.065H248.219V112.22H245.373V109.375H242.528V86.555H245.373V83.7098H248.219V80.8646H251.064V78H268.174V80.8646H271.019V83.7098H273.883V86.555H276.729V109.375H273.883V112.22H271.019V115.065H268.174V117.91ZM253.928 112.22H265.328V109.375H268.174V106.51H271.019V89.4196H268.174V86.555H265.328V83.7098H253.928V86.555H251.064V89.4196H248.219V106.51H251.064V109.375H253.928V112.22Z" fill="black"/>
<path d="M296.703 117.91H291.013V83.7098H279.613V78H308.103V83.7098H296.703V117.91Z" fill="black"/>
<path d="M329.442 117.91H323.752V78H352.242V83.7098H329.442V95.1099H349.397V100.82H329.442V117.91Z" fill="black"/>
<path d="M380.733 117.91H363.623V115.065H360.778V112.22H357.933V109.375H355.087V86.555H357.933V83.7098H360.778V80.8646H363.623V78H380.733V80.8646H383.578V83.7098H386.443V86.555H389.288V109.375H386.443V112.22H383.578V115.065H380.733V117.91ZM366.487 112.22H377.888V109.375H380.733V106.51H383.578V89.4196H380.733V86.555H377.888V83.7098H366.487V86.555H363.623V89.4196H360.778V106.51H363.623V109.375H366.487V112.22Z" fill="black"/>
<path d="M417.798 117.91H400.688V115.065H397.843V112.22H394.998V78H400.688V109.375H403.533V112.22H414.953V109.375H417.798V78H423.488V112.22H420.643V115.065H417.798V117.91Z" fill="black"/>
<path d="M434.908 117.91H429.217V78H437.753V83.7098H440.617V89.4196H443.463V95.1099H446.308V100.82H449.172V106.51H452.018V78H457.708V117.91H449.172V112.22H446.308V106.51H443.463V100.82H440.617V95.1099H437.753V89.4196H434.908V117.91Z" fill="black"/>
<path d="M486.237 117.91H463.437V78H486.237V80.8646H489.083V83.7098H491.928V86.555H494.792V109.375H491.928V112.22H489.083V115.065H486.237V117.91ZM469.128 112.22H483.392V109.375H486.237V106.51H489.083V89.4196H486.237V86.555H483.392V83.7098H469.128V112.22Z" fill="black"/>
<path d="M534.644 117.91H528.934V109.375H511.844V100.82H514.689V95.1099H517.534V89.4196H520.379V83.7098H523.244V78H534.644V105.087H537.489V109.375H534.644V117.91ZM517.534 105.087H528.934V83.7098H526.089V89.4196H523.244V95.1099H520.379V100.82H517.534V105.087Z" fill="black"/>
<path d="M561.732 117.91H547.467V115.065H544.622V112.22H541.777V83.7098H544.622V80.8646H547.467V78H561.732V80.8646H564.577V83.7098H567.422V112.22H564.577V115.065H561.732V117.91ZM550.312 112.22H558.867V109.375H561.732V86.555H558.867V83.7098H550.312V86.555H547.467V109.375H550.312V112.22Z" fill="black"/>
<path d="M595.913 117.91H590.203V109.375H573.112V100.82H575.957V95.1099H578.803V89.4196H581.648V83.7098H584.512V78H595.913V105.087H598.758V109.375H595.913V117.91ZM578.803 105.087H590.203V83.7098H587.358V89.4196H584.512V95.1099H581.648V100.82H578.803V105.087Z" fill="black"/>
<rect y="145.91" width="93.7143" height="50" fill="white"/>
<rect x="93.7142" y="145.91" width="93.7143" height="50" fill="#FBE54D"/>
<rect x="187.429" y="145.91" width="93.7143" height="50" fill="#74FADB"/>
<rect x="281.143" y="145.91" width="93.7143" height="50" fill="#68DC42"/>
<rect x="374.857" y="145.91" width="93.7143" height="50" fill="#E83CF2"/>
<rect x="468.572" y="145.91" width="93.7143" height="50" fill="#D52D25"/>
<rect x="562.286" y="145.91" width="93.7143" height="50" fill="#0732B3"/>
</svg>
