<svg width="119" height="170" viewBox="0 0 119 170" fill="none" xmlns="http://www.w3.org/2000/svg">
<rect x="0.5" y="0.5" width="118" height="169" fill="#EAEBED" stroke="#F5F5F6"/>
<g clip-path="url(#clip0_27151_272)">
<path d="M62.5 71H62.51" stroke="#ACADB9" stroke-width="2" stroke-linecap="round" stroke-linejoin="round"/>
<path d="M60.5 84H53.5C52.7044 84 51.9413 83.6839 51.3787 83.1213C50.8161 82.5587 50.5 81.7956 50.5 81V69C50.5 68.2044 50.8161 67.4413 51.3787 66.8787C51.9413 66.3161 52.7044 66 53.5 66H65.5C66.2956 66 67.0587 66.3161 67.6213 66.8787C68.1839 67.4413 68.5 68.2044 68.5 69V76" stroke="#ACADB9" stroke-width="2" stroke-linecap="round" stroke-linejoin="round"/>
<path d="M50.5 79.0001L55.5 74.0001C56.428 73.1071 57.572 73.1071 58.5 74.0001L61.5 77.0001" stroke="#ACADB9" stroke-width="2" stroke-linecap="round" stroke-linejoin="round"/>
<path d="M61.5 77.0001L62.5 76.0001C63.428 75.1071 64.572 75.1071 65.5 76.0001" stroke="#ACADB9" stroke-width="2" stroke-linecap="round" stroke-linejoin="round"/>
<path d="M69.5 85L64.5 80" stroke="#ACADB9" stroke-width="2" stroke-linecap="round" stroke-linejoin="round"/>
<path d="M64.5 85L69.5 80" stroke="#ACADB9" stroke-width="2" stroke-linecap="round" stroke-linejoin="round"/>
</g>
<path d="M39.0028 94.2727V103H37.7926L33.3565 96.5994H33.2756V103H31.9588V94.2727H33.1776L37.6179 100.682H37.6989V94.2727H39.0028ZM43.5785 103.132C42.9648 103.132 42.4293 102.991 41.9719 102.71C41.5146 102.429 41.1594 102.036 40.9066 101.53C40.6538 101.024 40.5273 100.433 40.5273 99.7571C40.5273 99.0781 40.6538 98.4844 40.9066 97.9759C41.1594 97.4673 41.5146 97.0724 41.9719 96.7912C42.4293 96.5099 42.9648 96.3693 43.5785 96.3693C44.1921 96.3693 44.7276 96.5099 45.185 96.7912C45.6424 97.0724 45.9975 97.4673 46.2504 97.9759C46.5032 98.4844 46.6296 99.0781 46.6296 99.7571C46.6296 100.433 46.5032 101.024 46.2504 101.53C45.9975 102.036 45.6424 102.429 45.185 102.71C44.7276 102.991 44.1921 103.132 43.5785 103.132ZM43.5827 102.062C43.9805 102.062 44.31 101.957 44.5714 101.747C44.8327 101.537 45.0259 101.257 45.1509 100.908C45.2788 100.558 45.3427 100.173 45.3427 99.7528C45.3427 99.3352 45.2788 98.9517 45.1509 98.6023C45.0259 98.25 44.8327 97.9673 44.5714 97.7543C44.31 97.5412 43.9805 97.4347 43.5827 97.4347C43.1822 97.4347 42.8498 97.5412 42.5856 97.7543C42.3242 97.9673 42.1296 98.25 42.0018 98.6023C41.8768 98.9517 41.8143 99.3352 41.8143 99.7528C41.8143 100.173 41.8768 100.558 42.0018 100.908C42.1296 101.257 42.3242 101.537 42.5856 101.747C42.8498 101.957 43.1822 102.062 43.5827 102.062ZM51.3299 103V94.2727H54.4407C55.1197 94.2727 55.6822 94.3963 56.1282 94.6435C56.5742 94.8906 56.908 95.2287 57.1296 95.6577C57.3512 96.0838 57.462 96.5639 57.462 97.098C57.462 97.6349 57.3498 98.1179 57.1254 98.5469C56.9038 98.973 56.5685 99.3111 56.1197 99.5611C55.6737 99.8082 55.1126 99.9318 54.4364 99.9318H52.2972V98.8153H54.3171C54.7461 98.8153 55.0941 98.7415 55.3612 98.5938C55.6282 98.4432 55.8242 98.2386 55.9492 97.9801C56.0742 97.7216 56.1367 97.4276 56.1367 97.098C56.1367 96.7685 56.0742 96.4759 55.9492 96.2202C55.8242 95.9645 55.6268 95.7642 55.3569 95.6193C55.0898 95.4744 54.7376 95.402 54.3001 95.402H52.6467V103H51.3299ZM61.5785 103.132C60.9648 103.132 60.4293 102.991 59.9719 102.71C59.5146 102.429 59.1594 102.036 58.9066 101.53C58.6538 101.024 58.5273 100.433 58.5273 99.7571C58.5273 99.0781 58.6538 98.4844 58.9066 97.9759C59.1594 97.4673 59.5146 97.0724 59.9719 96.7912C60.4293 96.5099 60.9648 96.3693 61.5785 96.3693C62.1921 96.3693 62.7276 96.5099 63.185 96.7912C63.6424 97.0724 63.9975 97.4673 64.2504 97.9759C64.5032 98.4844 64.6296 99.0781 64.6296 99.7571C64.6296 100.433 64.5032 101.024 64.2504 101.53C63.9975 102.036 63.6424 102.429 63.185 102.71C62.7276 102.991 62.1921 103.132 61.5785 103.132ZM61.5827 102.062C61.9805 102.062 62.31 101.957 62.5714 101.747C62.8327 101.537 63.0259 101.257 63.1509 100.908C63.2788 100.558 63.3427 100.173 63.3427 99.7528C63.3427 99.3352 63.2788 98.9517 63.1509 98.6023C63.0259 98.25 62.8327 97.9673 62.5714 97.7543C62.31 97.5412 61.9805 97.4347 61.5827 97.4347C61.1822 97.4347 60.8498 97.5412 60.5856 97.7543C60.3242 97.9673 60.1296 98.25 60.0018 98.6023C59.8768 98.9517 59.8143 99.3352 59.8143 99.7528C59.8143 100.173 59.8768 100.558 60.0018 100.908C60.1296 101.257 60.3242 101.537 60.5856 101.747C60.8498 101.957 61.1822 102.062 61.5827 102.062ZM70.9567 98.0526L69.8018 98.2571C69.7536 98.1094 69.6768 97.9687 69.5717 97.8352C69.4695 97.7017 69.3303 97.5923 69.1541 97.5071C68.978 97.4219 68.7578 97.3793 68.4936 97.3793C68.1328 97.3793 67.8317 97.4602 67.5902 97.6222C67.3487 97.7812 67.228 97.9872 67.228 98.2401C67.228 98.4588 67.3089 98.6349 67.4709 98.7685C67.6328 98.902 67.8942 99.0114 68.255 99.0966L69.2947 99.3352C69.897 99.4744 70.3459 99.6889 70.6413 99.9787C70.9368 100.268 71.0845 100.645 71.0845 101.108C71.0845 101.5 70.9709 101.849 70.7436 102.156C70.5192 102.46 70.2053 102.699 69.8018 102.872C69.4013 103.045 68.9368 103.132 68.4084 103.132C67.6754 103.132 67.0774 102.976 66.6143 102.663C66.1513 102.348 65.8672 101.901 65.7621 101.321L66.9936 101.134C67.0703 101.455 67.228 101.697 67.4666 101.862C67.7053 102.024 68.0163 102.105 68.3999 102.105C68.8175 102.105 69.1513 102.018 69.4013 101.845C69.6513 101.669 69.7763 101.455 69.7763 101.202C69.7763 100.997 69.6996 100.825 69.5462 100.686C69.3956 100.547 69.1641 100.442 68.8516 100.371L67.7436 100.128C67.1328 99.9886 66.6811 99.767 66.3885 99.4631C66.0987 99.1591 65.9538 98.7741 65.9538 98.3082C65.9538 97.9219 66.0618 97.5838 66.2777 97.294C66.4936 97.0043 66.7919 96.7784 67.1726 96.6165C67.5533 96.4517 67.9893 96.3693 68.4808 96.3693C69.1882 96.3693 69.745 96.5227 70.1513 96.8295C70.5575 97.1335 70.826 97.5412 70.9567 98.0526ZM75.5408 96.4545V97.4773H71.9656V96.4545H75.5408ZM72.9244 94.8864H74.1985V101.078C74.1985 101.325 74.2354 101.511 74.3093 101.636C74.3832 101.759 74.4783 101.842 74.5948 101.888C74.7141 101.93 74.8434 101.952 74.9826 101.952C75.0849 101.952 75.1744 101.945 75.2511 101.93C75.3278 101.916 75.3874 101.905 75.43 101.896L75.6602 102.949C75.5863 102.977 75.4812 103.006 75.3448 103.034C75.2085 103.065 75.038 103.082 74.8335 103.085C74.4982 103.091 74.1857 103.031 73.896 102.906C73.6062 102.781 73.3718 102.588 73.1928 102.327C73.0138 102.065 72.9244 101.737 72.9244 101.342V94.8864ZM79.701 103.132C79.0561 103.132 78.5007 102.994 78.0348 102.719C77.5717 102.44 77.2138 102.05 76.9609 101.547C76.7109 101.041 76.5859 100.449 76.5859 99.7699C76.5859 99.0994 76.7109 98.5085 76.9609 97.9972C77.2138 97.4858 77.5661 97.0866 78.0178 96.7997C78.4723 96.5128 79.0036 96.3693 79.6115 96.3693C79.9808 96.3693 80.3388 96.4304 80.6854 96.5526C81.032 96.6747 81.343 96.8665 81.6186 97.1278C81.8942 97.3892 82.1115 97.7287 82.2706 98.1463C82.4297 98.5611 82.5092 99.0653 82.5092 99.6591V100.111H77.3061V99.1562H81.2607C81.2607 98.821 81.1925 98.5241 81.0561 98.2656C80.9197 98.0043 80.728 97.7983 80.4808 97.6477C80.2365 97.4972 79.9496 97.4219 79.62 97.4219C79.2621 97.4219 78.9496 97.5099 78.6825 97.6861C78.4183 97.8594 78.2138 98.0866 78.0689 98.3679C77.9268 98.6463 77.8558 98.9489 77.8558 99.2756V100.021C77.8558 100.459 77.9325 100.831 78.0859 101.138C78.2422 101.445 78.4595 101.679 78.7379 101.841C79.0163 102 79.3416 102.08 79.7138 102.08C79.9553 102.08 80.1754 102.045 80.3743 101.977C80.5732 101.906 80.745 101.801 80.8899 101.662C81.0348 101.523 81.1456 101.351 81.2223 101.146L82.4283 101.364C82.3317 101.719 82.1584 102.03 81.9084 102.297C81.6612 102.561 81.3501 102.767 80.9751 102.915C80.603 103.06 80.1783 103.132 79.701 103.132ZM83.9229 103V96.4545H85.1545V97.4943H85.2227C85.342 97.142 85.5522 96.8651 85.8533 96.6634C86.1573 96.4588 86.5011 96.3565 86.8846 96.3565C86.9641 96.3565 87.0579 96.3594 87.1658 96.3651C87.2766 96.3707 87.3633 96.3778 87.4258 96.3864V97.6051C87.3746 97.5909 87.2837 97.5753 87.1531 97.5582C87.0224 97.5384 86.8917 97.5284 86.761 97.5284C86.4599 97.5284 86.1914 97.5923 85.9556 97.7202C85.7227 97.8452 85.538 98.0199 85.4016 98.2443C85.2653 98.4659 85.1971 98.7187 85.1971 99.0028V103H83.9229Z" fill="#ACADB9"/>
<defs>
<clipPath id="clip0_27151_272">
<rect width="24" height="24" fill="white" transform="translate(47.5 63)"/>
</clipPath>
</defs>
</svg>
